<mxfile host="app.diagrams.net" modified="2024-02-18T15:53:28.378Z" agent="Mozilla/5.0 (Macintosh; Intel Mac OS X 10_15_7) AppleWebKit/537.36 (KHTML, like Gecko) Chrome/121.0.0.0 Safari/537.36" etag="fiddtzlrzGemh3J90lE4" version="23.1.5" type="device">
  <diagram name="Page-1" id="0FLJBZ65uA-jHrilGGjb">
    <mxGraphModel dx="1804" dy="1596" grid="1" gridSize="10" guides="1" tooltips="1" connect="1" arrows="1" fold="1" page="1" pageScale="1" pageWidth="850" pageHeight="1100" math="0" shadow="0">
      <root>
        <mxCell id="0" />
        <mxCell id="1" parent="0" />
        <mxCell id="P1qMn78-V4kQmmfPUhhR-1" value="&lt;font style=&quot;font-size: 18px;&quot;&gt;&lt;em style=&quot;box-sizing: border-box; color: rgb(44, 45, 48); font-family: Onest, Roboto, &amp;quot;San Francisco&amp;quot;, &amp;quot;Helvetica Neue&amp;quot;, Helvetica, Arial; text-align: start; background-color: rgb(255, 255, 255);&quot;&gt;Задача&lt;/em&gt;: Написать программу, которая из имеющегося массива строк формирует новый массив из строк, &lt;br&gt;длина которых меньше, либо равна 3 символам. &lt;br&gt;Первоначальный массив можно ввести с клавиатуры, либо задать на старте выполнения алгоритма. &lt;br&gt;&lt;br&gt;&lt;/font&gt;" style="text;html=1;align=center;verticalAlign=middle;resizable=0;points=[];autosize=1;strokeColor=none;fillColor=none;" vertex="1" parent="1">
          <mxGeometry x="-390" y="-7" width="920" height="100" as="geometry" />
        </mxCell>
        <mxCell id="P1qMn78-V4kQmmfPUhhR-5" value="" style="edgeStyle=orthogonalEdgeStyle;rounded=0;orthogonalLoop=1;jettySize=auto;html=1;entryX=0.5;entryY=0;entryDx=0;entryDy=0;" edge="1" parent="1" source="P1qMn78-V4kQmmfPUhhR-3" target="P1qMn78-V4kQmmfPUhhR-6">
          <mxGeometry relative="1" as="geometry" />
        </mxCell>
        <mxCell id="P1qMn78-V4kQmmfPUhhR-3" value="Start" style="ellipse;whiteSpace=wrap;html=1;" vertex="1" parent="1">
          <mxGeometry x="-40" y="100" width="120" height="40" as="geometry" />
        </mxCell>
        <mxCell id="P1qMn78-V4kQmmfPUhhR-52" value="" style="edgeStyle=orthogonalEdgeStyle;rounded=0;orthogonalLoop=1;jettySize=auto;html=1;" edge="1" parent="1" source="P1qMn78-V4kQmmfPUhhR-6" target="P1qMn78-V4kQmmfPUhhR-4">
          <mxGeometry relative="1" as="geometry" />
        </mxCell>
        <mxCell id="P1qMn78-V4kQmmfPUhhR-6" value="MaxLength=3&lt;div&gt;&lt;br/&gt;&lt;/div&gt;" style="whiteSpace=wrap;html=1;" vertex="1" parent="1">
          <mxGeometry x="-40" y="180" width="120" height="50" as="geometry" />
        </mxCell>
        <mxCell id="P1qMn78-V4kQmmfPUhhR-16" value="" style="edgeStyle=orthogonalEdgeStyle;rounded=0;orthogonalLoop=1;jettySize=auto;html=1;exitX=0.5;exitY=1;exitDx=0;exitDy=0;" edge="1" parent="1" source="P1qMn78-V4kQmmfPUhhR-10" target="P1qMn78-V4kQmmfPUhhR-15">
          <mxGeometry relative="1" as="geometry">
            <mxPoint x="100" y="990" as="sourcePoint" />
            <Array as="points" />
          </mxGeometry>
        </mxCell>
        <mxCell id="P1qMn78-V4kQmmfPUhhR-26" value="" style="edgeStyle=orthogonalEdgeStyle;rounded=0;orthogonalLoop=1;jettySize=auto;html=1;entryX=0.5;entryY=0;entryDx=0;entryDy=0;" edge="1" parent="1" source="P1qMn78-V4kQmmfPUhhR-10" target="P1qMn78-V4kQmmfPUhhR-53">
          <mxGeometry relative="1" as="geometry">
            <mxPoint x="-230" y="1180" as="targetPoint" />
            <Array as="points">
              <mxPoint x="-250" y="841" />
              <mxPoint x="-250" y="1290" />
              <mxPoint x="23" y="1290" />
            </Array>
          </mxGeometry>
        </mxCell>
        <mxCell id="P1qMn78-V4kQmmfPUhhR-10" value="i=0, i &amp;lt; array.Length , i++" style="shape=hexagon;perimeter=hexagonPerimeter2;whiteSpace=wrap;html=1;fixedSize=1;" vertex="1" parent="1">
          <mxGeometry x="-89" y="820" width="218" height="42" as="geometry" />
        </mxCell>
        <mxCell id="P1qMn78-V4kQmmfPUhhR-18" value="" style="edgeStyle=orthogonalEdgeStyle;rounded=0;orthogonalLoop=1;jettySize=auto;html=1;exitX=0;exitY=0.5;exitDx=0;exitDy=0;" edge="1" parent="1" source="P1qMn78-V4kQmmfPUhhR-15" target="P1qMn78-V4kQmmfPUhhR-17">
          <mxGeometry relative="1" as="geometry">
            <Array as="points">
              <mxPoint x="-130" y="994" />
              <mxPoint x="-130" y="1133" />
              <mxPoint x="-84" y="1133" />
            </Array>
          </mxGeometry>
        </mxCell>
        <mxCell id="P1qMn78-V4kQmmfPUhhR-51" value="" style="edgeStyle=orthogonalEdgeStyle;rounded=0;orthogonalLoop=1;jettySize=auto;html=1;" edge="1" parent="1" source="P1qMn78-V4kQmmfPUhhR-15">
          <mxGeometry relative="1" as="geometry">
            <mxPoint x="130" y="840" as="targetPoint" />
            <Array as="points">
              <mxPoint x="180" y="994" />
              <mxPoint x="180" y="840" />
            </Array>
          </mxGeometry>
        </mxCell>
        <mxCell id="P1qMn78-V4kQmmfPUhhR-15" value="array[i].Length &amp;lt;= MaxLength&lt;br&gt;&amp;nbsp;&amp;nbsp;" style="rhombus;whiteSpace=wrap;html=1;" vertex="1" parent="1">
          <mxGeometry x="-77.5" y="919" width="195" height="149" as="geometry" />
        </mxCell>
        <mxCell id="P1qMn78-V4kQmmfPUhhR-24" value="" style="edgeStyle=orthogonalEdgeStyle;rounded=0;orthogonalLoop=1;jettySize=auto;html=1;" edge="1" parent="1" source="P1qMn78-V4kQmmfPUhhR-17">
          <mxGeometry relative="1" as="geometry">
            <mxPoint x="180" y="990" as="targetPoint" />
            <Array as="points">
              <mxPoint x="-130" y="1248" />
              <mxPoint x="180" y="1248" />
            </Array>
          </mxGeometry>
        </mxCell>
        <mxCell id="P1qMn78-V4kQmmfPUhhR-17" value="newArray[j]=array[i];&lt;br&gt;j++" style="whiteSpace=wrap;html=1;" vertex="1" parent="1">
          <mxGeometry x="-200" y="1130" width="140" height="70" as="geometry" />
        </mxCell>
        <mxCell id="P1qMn78-V4kQmmfPUhhR-19" value="Yes" style="text;html=1;align=center;verticalAlign=middle;resizable=0;points=[];autosize=1;strokeColor=none;fillColor=none;" vertex="1" parent="1">
          <mxGeometry x="-129" y="960" width="40" height="30" as="geometry" />
        </mxCell>
        <mxCell id="P1qMn78-V4kQmmfPUhhR-22" value="No" style="text;html=1;align=center;verticalAlign=middle;resizable=0;points=[];autosize=1;strokeColor=none;fillColor=none;" vertex="1" parent="1">
          <mxGeometry x="120" y="960" width="40" height="30" as="geometry" />
        </mxCell>
        <mxCell id="P1qMn78-V4kQmmfPUhhR-25" value="End" style="ellipse;whiteSpace=wrap;html=1;" vertex="1" parent="1">
          <mxGeometry x="-30" y="1440" width="100" height="60" as="geometry" />
        </mxCell>
        <mxCell id="P1qMn78-V4kQmmfPUhhR-32" value="" style="edgeStyle=orthogonalEdgeStyle;rounded=0;orthogonalLoop=1;jettySize=auto;html=1;" edge="1" parent="1" source="P1qMn78-V4kQmmfPUhhR-4">
          <mxGeometry relative="1" as="geometry">
            <mxPoint x="20" y="420" as="sourcePoint" />
            <mxPoint x="20" y="390" as="targetPoint" />
          </mxGeometry>
        </mxCell>
        <mxCell id="P1qMn78-V4kQmmfPUhhR-4" value="Enter string array&lt;div&gt;&lt;br&gt;&lt;/div&gt;" style="shape=parallelogram;perimeter=parallelogramPerimeter;whiteSpace=wrap;html=1;fixedSize=1;" vertex="1" parent="1">
          <mxGeometry x="-60" y="270" width="160" height="50" as="geometry" />
        </mxCell>
        <mxCell id="P1qMn78-V4kQmmfPUhhR-36" value="" style="edgeStyle=orthogonalEdgeStyle;rounded=0;orthogonalLoop=1;jettySize=auto;html=1;" edge="1" parent="1" target="P1qMn78-V4kQmmfPUhhR-35">
          <mxGeometry relative="1" as="geometry">
            <mxPoint x="20" y="440" as="sourcePoint" />
          </mxGeometry>
        </mxCell>
        <mxCell id="P1qMn78-V4kQmmfPUhhR-46" value="" style="edgeStyle=orthogonalEdgeStyle;rounded=0;orthogonalLoop=1;jettySize=auto;html=1;" edge="1" parent="1" source="P1qMn78-V4kQmmfPUhhR-34">
          <mxGeometry relative="1" as="geometry">
            <mxPoint x="-40" y="730" as="targetPoint" />
            <Array as="points">
              <mxPoint x="-210" y="411" />
            </Array>
          </mxGeometry>
        </mxCell>
        <mxCell id="P1qMn78-V4kQmmfPUhhR-48" value="" style="edgeStyle=orthogonalEdgeStyle;rounded=0;orthogonalLoop=1;jettySize=auto;html=1;" edge="1" parent="1" source="P1qMn78-V4kQmmfPUhhR-34" target="P1qMn78-V4kQmmfPUhhR-35">
          <mxGeometry relative="1" as="geometry" />
        </mxCell>
        <mxCell id="P1qMn78-V4kQmmfPUhhR-34" value="string s in array" style="shape=hexagon;perimeter=hexagonPerimeter2;whiteSpace=wrap;html=1;fixedSize=1;" vertex="1" parent="1">
          <mxGeometry x="-89" y="390" width="218" height="42" as="geometry" />
        </mxCell>
        <mxCell id="P1qMn78-V4kQmmfPUhhR-38" value="" style="edgeStyle=orthogonalEdgeStyle;rounded=0;orthogonalLoop=1;jettySize=auto;html=1;" edge="1" parent="1" source="P1qMn78-V4kQmmfPUhhR-35">
          <mxGeometry relative="1" as="geometry">
            <mxPoint x="-99" y="570" as="targetPoint" />
          </mxGeometry>
        </mxCell>
        <mxCell id="P1qMn78-V4kQmmfPUhhR-40" value="" style="edgeStyle=orthogonalEdgeStyle;rounded=0;orthogonalLoop=1;jettySize=auto;html=1;entryX=1;entryY=0.5;entryDx=0;entryDy=0;" edge="1" parent="1" source="P1qMn78-V4kQmmfPUhhR-35" target="P1qMn78-V4kQmmfPUhhR-34">
          <mxGeometry relative="1" as="geometry">
            <mxPoint x="200" y="510" as="targetPoint" />
            <Array as="points">
              <mxPoint x="170" y="510" />
              <mxPoint x="170" y="411" />
            </Array>
          </mxGeometry>
        </mxCell>
        <mxCell id="P1qMn78-V4kQmmfPUhhR-35" value="s.Length &amp;lt;= MaxLength" style="rhombus;whiteSpace=wrap;html=1;" vertex="1" parent="1">
          <mxGeometry x="-60" y="470" width="160" height="80" as="geometry" />
        </mxCell>
        <mxCell id="P1qMn78-V4kQmmfPUhhR-42" value="" style="edgeStyle=orthogonalEdgeStyle;rounded=0;orthogonalLoop=1;jettySize=auto;html=1;" edge="1" parent="1" source="P1qMn78-V4kQmmfPUhhR-37">
          <mxGeometry relative="1" as="geometry">
            <mxPoint x="170" y="510" as="targetPoint" />
            <Array as="points">
              <mxPoint x="170" y="601" />
            </Array>
          </mxGeometry>
        </mxCell>
        <mxCell id="P1qMn78-V4kQmmfPUhhR-37" value="count++" style="whiteSpace=wrap;html=1;" vertex="1" parent="1">
          <mxGeometry x="-159" y="571" width="120" height="60" as="geometry" />
        </mxCell>
        <mxCell id="P1qMn78-V4kQmmfPUhhR-43" value="No" style="text;html=1;align=center;verticalAlign=middle;resizable=0;points=[];autosize=1;strokeColor=none;fillColor=none;" vertex="1" parent="1">
          <mxGeometry x="91" y="478" width="40" height="30" as="geometry" />
        </mxCell>
        <mxCell id="P1qMn78-V4kQmmfPUhhR-44" value="Yes" style="text;html=1;align=center;verticalAlign=middle;resizable=0;points=[];autosize=1;strokeColor=none;fillColor=none;" vertex="1" parent="1">
          <mxGeometry x="-119" y="478" width="40" height="30" as="geometry" />
        </mxCell>
        <mxCell id="P1qMn78-V4kQmmfPUhhR-49" value="" style="edgeStyle=orthogonalEdgeStyle;rounded=0;orthogonalLoop=1;jettySize=auto;html=1;" edge="1" parent="1" source="P1qMn78-V4kQmmfPUhhR-47" target="P1qMn78-V4kQmmfPUhhR-10">
          <mxGeometry relative="1" as="geometry" />
        </mxCell>
        <mxCell id="P1qMn78-V4kQmmfPUhhR-47" value="newArray[count];&lt;br&gt;j=0" style="whiteSpace=wrap;html=1;rounded=0;" vertex="1" parent="1">
          <mxGeometry x="-40" y="700" width="120" height="60" as="geometry" />
        </mxCell>
        <mxCell id="P1qMn78-V4kQmmfPUhhR-55" value="" style="edgeStyle=orthogonalEdgeStyle;rounded=0;orthogonalLoop=1;jettySize=auto;html=1;exitX=0.471;exitY=0.863;exitDx=0;exitDy=0;exitPerimeter=0;" edge="1" parent="1" source="P1qMn78-V4kQmmfPUhhR-53" target="P1qMn78-V4kQmmfPUhhR-25">
          <mxGeometry relative="1" as="geometry" />
        </mxCell>
        <mxCell id="P1qMn78-V4kQmmfPUhhR-53" value="newArray" style="shape=document;whiteSpace=wrap;html=1;boundedLbl=1;" vertex="1" parent="1">
          <mxGeometry x="-37" y="1330" width="120" height="80" as="geometry" />
        </mxCell>
      </root>
    </mxGraphModel>
  </diagram>
</mxfile>
